<svg width="40" height="40" viewBox="0 0 40 40" fill="none" xmlns="http://www.w3.org/2000/svg">
<path fill-rule="evenodd" clip-rule="evenodd" d="M6 20C6 23.713 7.475 27.274 10.1005 29.8995C12.726 32.525 16.287 34 20 34C23.713 34 27.274 32.525 29.8995 29.8995C32.525 27.274 34 23.713 34 20C34 16.287 32.525 12.726 29.8995 10.1005C27.274 7.475 23.713 6 20 6C16.287 6 12.726 7.475 10.1005 10.1005C7.475 12.726 6 16.287 6 20ZM36 20C36 24.2435 34.3143 28.3131 31.3137 31.3137C28.3131 34.3143 24.2435 36 20 36C15.7565 36 11.6869 34.3143 8.68629 31.3137C5.68571 28.3131 4 24.2435 4 20C4 15.7565 5.68571 11.6869 8.68629 8.68629C11.6869 5.68571 15.7565 4 20 4C24.2435 4 28.3131 5.68571 31.3137 8.68629C34.3143 11.6869 36 15.7565 36 20ZM27 19C27.2652 19 27.5196 19.1054 27.7071 19.2929C27.8946 19.4804 28 19.7348 28 20C28 20.2652 27.8946 20.5196 27.7071 20.7071C27.5196 20.8946 27.2652 21 27 21H15.414L19.708 25.292C19.801 25.385 19.8747 25.4954 19.925 25.6168C19.9754 25.7383 20.0013 25.8685 20.0013 26C20.0013 26.1315 19.9754 26.2617 19.925 26.3832C19.8747 26.5046 19.801 26.615 19.708 26.708C19.615 26.801 19.5046 26.8747 19.3832 26.925C19.2617 26.9754 19.1315 27.0013 19 27.0013C18.8685 27.0013 18.7383 26.9754 18.6168 26.925C18.4954 26.8747 18.385 26.801 18.292 26.708L12.292 20.708C12.1989 20.6151 12.125 20.5048 12.0746 20.3833C12.0242 20.2618 11.9982 20.1315 11.9982 20C11.9982 19.8685 12.0242 19.7382 12.0746 19.6167C12.125 19.4952 12.1989 19.3849 12.292 19.292L18.292 13.292C18.4798 13.1042 18.7344 12.9987 19 12.9987C19.2656 12.9987 19.5202 13.1042 19.708 13.292C19.8958 13.4798 20.0013 13.7344 20.0013 14C20.0013 14.2656 19.8958 14.5202 19.708 14.708L15.414 19H27Z" fill="white" stroke="white"/>
</svg>
