<svg width="93" height="109" viewBox="0 0 93 109" fill="none" xmlns="http://www.w3.org/2000/svg">
<path d="M87.8126 16.3186C71.6793 16.2946 55.5666 5.6147 49.3914 1.02493C47.5395 -0.351365 44.9647 -0.340985 43.1234 1.05251C37.0721 5.63546 21.2553 16.2946 5.18751 16.3188C2.32711 16.3222 0 18.6584 0 21.5245V66.759C0 67.8566 0.333992 68.9026 0.963849 69.7799C15.0455 89.3849 37.0582 104.142 43.4674 108.195C44.3143 108.732 45.2883 109 46.259 109C47.2262 109 48.19 108.732 49.0368 108.202C55.4806 104.149 77.6239 89.3985 92.0051 69.8005C92.6454 68.9266 93 67.8392 93 66.7382V21.5244C92.9998 18.6582 90.6729 16.322 87.8126 16.3186ZM67.8171 38.3423L48.4137 61.4912C48.0007 61.9832 47.3949 62.2687 46.7514 62.2723H46.734C46.0972 62.2723 45.4948 61.997 45.0783 61.5153L35.3508 50.2644C34.917 49.762 34.9722 49.0016 35.4747 48.5682C35.9773 48.1311 36.7379 48.1863 37.175 48.6921L46.7339 59.7469L65.9684 36.7942C66.3953 36.285 67.1561 36.2196 67.6655 36.6463C68.1751 37.0728 68.2441 37.8331 67.8171 38.3423ZM76.7977 50.8044C76.7977 51.472 76.2573 52.0086 75.593 52.0086C74.925 52.0086 74.3883 51.4718 74.3883 50.8044V34.7434C74.3883 33.2569 73.1973 32.0322 71.6826 31.9564C61.9069 31.4576 52.6476 25.777 47.9972 22.436C47.0127 21.7273 45.691 21.7341 44.7133 22.4498C40.1492 25.7838 31.0446 31.4574 21.3103 31.9564C19.7992 32.0322 18.6117 33.2535 18.6117 34.7366V61.7905C18.6117 62.3926 18.8043 62.974 19.1727 63.4729C27.4923 74.7618 39.8358 83.3909 44.7547 86.5769C45.6806 87.1757 46.8751 87.1757 47.7977 86.5769C50.9403 84.5435 57.1464 80.2772 63.4112 74.5519C63.9033 74.1046 64.6643 74.139 65.1149 74.6274C65.5625 75.1195 65.5281 75.88 65.0357 76.3306C58.6437 82.1729 52.3136 86.5254 49.109 88.6C48.2485 89.1574 47.2641 89.4361 46.2762 89.4361C45.2917 89.4361 44.3039 89.1574 43.4434 88.6C38.4144 85.3418 25.7886 76.5096 17.2315 64.9007C16.5605 63.9855 16.2025 62.9121 16.2025 61.7905V34.7366C16.2025 31.9702 18.3916 29.696 21.1866 29.5515C30.2944 29.0836 38.9446 23.6818 43.292 20.5059C45.1129 19.171 47.5706 19.1606 49.4018 20.4785C53.8387 23.6646 62.6471 29.0836 71.8033 29.5515C74.6053 29.696 76.7979 31.9738 76.7979 34.7434L76.7977 50.8044Z" fill="#17E9E1"/>
</svg>
